<?xml version="1.0" encoding="UTF-8" standalone="no"?>
<svg
   xmlns:dc="http://purl.org/dc/elements/1.1/"
   xmlns:cc="http://creativecommons.org/ns#"
   xmlns:rdf="http://www.w3.org/1999/02/22-rdf-syntax-ns#"
   xmlns:svg="http://www.w3.org/2000/svg"
   xmlns="http://www.w3.org/2000/svg"
   xmlns:sodipodi="http://sodipodi.sourceforge.net/DTD/sodipodi-0.dtd"
   xmlns:inkscape="http://www.inkscape.org/namespaces/inkscape"
   height="709.42371pt"
   viewBox="-11 0 708.03811 709.42371"
   width="709.42371pt"
   version="1.1"
   id="svg16"
   sodipodi:docname="step-5.svg"
   inkscape:version="0.92.3 (2405546, 2018-03-11)">
  <metadata
     id="metadata22">
    <rdf:RDF>
      <cc:Work
         rdf:about="">
        <dc:format>image/svg+xml</dc:format>
        <dc:type
           rdf:resource="http://purl.org/dc/dcmitype/StillImage" />
        <dc:title></dc:title>
      </cc:Work>
    </rdf:RDF>
  </metadata>
  <defs
     id="defs20" />
  <sodipodi:namedview
     pagecolor="#979797"
     bordercolor="#666666"
     borderopacity="1"
     objecttolerance="10"
     gridtolerance="10"
     guidetolerance="10"
     inkscape:pageopacity="0"
     inkscape:pageshadow="2"
     inkscape:window-width="2560"
     inkscape:window-height="1379"
     id="namedview18"
     showgrid="false"
     fit-margin-top="0"
     fit-margin-left="0"
     fit-margin-right="0"
     fit-margin-bottom="0"
     inkscape:zoom="0.34570313"
     inkscape:cx="487.41242"
     inkscape:cy="391.67233"
     inkscape:window-x="1920"
     inkscape:window-y="33"
     inkscape:window-maximized="1"
     inkscape:current-layer="svg16" />
  <circle
     style="opacity:1;fill:#ffffff;fill-opacity:1;fill-rule:evenodd;stroke:none;stroke-width:0.06947593;stroke-linecap:round;stroke-linejoin:bevel;stroke-miterlimit:4;stroke-dasharray:none;stroke-opacity:1"
     id="path840"
     cx="343.21185"
     cy="354.71185"
     r="354.71185" />
  <path
     style="fill:#ffeb99"
     inkscape:connector-curvature="0"
     d="m 517.07904,260.88763 -4.375,-3.50781 -168.76172,-136.65625 -168.76172,136.65625 -4.375,3.50781 -2.76953,2.23047 v 302.09766 h 351.8125 V 263.1181 Z m 0,0"
     id="path2" />
  <path
     style="fill:#ff6600"
     inkscape:connector-curvature="0"
     d="M 453.88372,153.26654 343.94232,64.211853 99.211853,262.32904 126.91888,296.41107 168.03607,263.1181 v -0.0195 l 2.76953,-2.21094 173.13672,-140.16406 173.13672,140.16406 2.76953,2.21094 v 0.0195 l 41.12109,33.29297 27.70313,-34.08203 -68.82422,-55.74219 z m 0,0"
     id="path4" />
  <path
     style="fill:#ffde55"
     inkscape:connector-curvature="0"
     d="m 343.94232,131.71576 173.13672,140.16406 2.76953,2.21094 V 263.1181 l -2.76953,-2.23047 -4.375,-3.50781 -168.76172,-136.65625 -168.76172,136.65625 -4.375,3.50781 -2.76953,2.23047 v 10.97266 l 2.76953,-2.21094 z m 0,0"
     id="path6" />
  <path
     style="fill:#ff6600"
     inkscape:connector-curvature="0"
     d="m 519.84857,114.45404 h -65.96485 v 38.8125 l 65.96485,53.32031 z m 0,0"
     id="path8" />
  <path
     style="fill:#ff6243"
     inkscape:connector-curvature="0"
     d="m 519.84857,206.58685 v -10.99609 l -65.96485,-53.32031 v 10.99609 z m 0,0"
     id="path10" />
  <path
     style="fill:#ff6600"
     inkscape:connector-curvature="0"
     d="m 124.05951,554.22357 h 439.76562 v 21.98828 H 124.05951 Z m 0,0"
     id="path12" />
  <path
     style="fill:#ff6600"
     inkscape:connector-curvature="0"
     d="m 363.41497,348.47747 c 9.44532,-35.1289 -11.3789,-71.26171 -46.50781,-80.70703 -11.20312,-3.01172 -23,-3.01172 -34.20312,0 l 32.57812,32.57422 -15.54687,31.10156 -31.08985,15.54688 -32.58984,-32.58594 c -9.44141,35.12891 11.37891,71.26563 46.50781,80.70703 11.20313,3.01172 23,3.01172 34.20313,0 l 91.8125,91.8125 c 12.98437,12.77735 33.86718,12.60157 46.64062,-0.38281 12.62891,-12.83594 12.625,-33.42969 -0.004,-46.26172 z m 0,0"
     id="path14" />
</svg>
