<?xml version="1.0" encoding="UTF-8" standalone="no"?>
<svg
   xmlns:dc="http://purl.org/dc/elements/1.1/"
   xmlns:cc="http://creativecommons.org/ns#"
   xmlns:rdf="http://www.w3.org/1999/02/22-rdf-syntax-ns#"
   xmlns:svg="http://www.w3.org/2000/svg"
   xmlns="http://www.w3.org/2000/svg"
   xmlns:sodipodi="http://sodipodi.sourceforge.net/DTD/sodipodi-0.dtd"
   xmlns:inkscape="http://www.inkscape.org/namespaces/inkscape"
   height="820.06775pt"
   viewBox="0 0 820.06775 820.06775"
   width="820.06775pt"
   version="1.1"
   id="svg26"
   sodipodi:docname="step-3.svg"
   inkscape:version="0.92.3 (2405546, 2018-03-11)">
  <metadata
     id="metadata32">
    <rdf:RDF>
      <cc:Work
         rdf:about="">
        <dc:format>image/svg+xml</dc:format>
        <dc:type
           rdf:resource="http://purl.org/dc/dcmitype/StillImage" />
        <dc:title></dc:title>
      </cc:Work>
    </rdf:RDF>
  </metadata>
  <defs
     id="defs30" />
  <sodipodi:namedview
     pagecolor="#b0b0b0"
     bordercolor="#666666"
     borderopacity="1"
     objecttolerance="10"
     gridtolerance="10"
     guidetolerance="10"
     inkscape:pageopacity="0"
     inkscape:pageshadow="2"
     inkscape:window-width="2560"
     inkscape:window-height="1379"
     id="namedview28"
     showgrid="false"
     fit-margin-top="0"
     fit-margin-left="0"
     fit-margin-right="0"
     fit-margin-bottom="0"
     inkscape:zoom="0.34570313"
     inkscape:cx="-150.4181"
     inkscape:cy="546.7119"
     inkscape:window-x="1920"
     inkscape:window-y="33"
     inkscape:window-maximized="1"
     inkscape:current-layer="svg26" />
  <circle
     style="opacity:1;fill:#ffffff;fill-opacity:1;fill-rule:evenodd;stroke:none;stroke-width:0.075;stroke-linecap:round;stroke-linejoin:bevel;stroke-miterlimit:4;stroke-dasharray:none;stroke-opacity:1"
     id="path853"
     cx="410.03387"
     cy="410.03387"
     r="410.03387" />
  <g
     id="g851"
     transform="matrix(1.0762712,0,0,1.0762712,134.50845,155.50845)">
    <path
       id="path2"
       d="m 512,15 v 345 l -30,30 H 30 L 0,360 V 15 C 0,6.597656 6.597656,0 15,0 h 482 c 8.40234,0 15,6.597656 15,15 z m 0,0"
       inkscape:connector-curvature="0"
       style="fill:#3e5959" />
    <path
       id="path4"
       d="m 512,15 v 345 l -30,30 H 256 V 0 h 241 c 8.40234,0 15,6.597656 15,15 z m 0,0"
       inkscape:connector-curvature="0"
       style="fill:#384949" />
    <path
       id="path6"
       d="M 30,30 H 482 V 330 H 30 Z m 0,0"
       inkscape:connector-curvature="0"
       style="fill:#5aaae7" />
    <path
       id="path8"
       d="M 256,30 H 482 V 330 H 256 Z m 0,0"
       inkscape:connector-curvature="0"
       style="fill:#3d9ae2" />
    <path
       id="path10"
       d="M 330.09766,492.19922 H 181.90234 l 30,-91 h 88.19532 z m 0,0"
       inkscape:connector-curvature="0"
       style="fill:#a8d3d8" />
    <path
       id="path12"
       d="m 300.09766,401.19922 30,91 H 256 v -91 z m 0,0"
       inkscape:connector-curvature="0"
       style="fill:#8ebac5" />
    <path
       id="path14"
       d="m 512,360 v 46 c 0,8.40234 -6.59766,15 -15,15 H 15 C 6.597656,421 0,414.40234 0,406 v -46 z m 0,0"
       inkscape:connector-curvature="0"
       style="fill:#deecf1" />
    <path
       id="path16"
       d="m 512,360 v 46 c 0,8.40234 -6.59766,15 -15,15 H 256 v -61 z m 0,0"
       inkscape:connector-curvature="0"
       style="fill:#c6e2e7" />
    <path
       id="path18"
       d="M 376,45 H 136 c -8.40234,0 -15,6.597656 -15,15 v 240 c 0,8.40234 6.59766,15 15,15 h 60 c 8.40234,0 15,-6.59766 15,-15 0,-19.5 12.59766,-36.30078 30,-42.30078 V 300 c 0,8.40234 6.59766,15 15,15 h 120 c 8.40234,0 15,-6.59766 15,-15 V 60 c 0,-8.402344 -6.59766,-15 -15,-15 z m -15,90 h -60 v -15 c 0,-8.40234 -6.59766,-15 -15,-15 -8.40234,0 -15,6.59766 -15,15 v 30 c 0,8.40234 6.59766,15 15,15 h 75 v 30 h -45 c -8.40234,0 -15,6.59766 -15,15 0,8.40234 6.59766,15 15,15 h 45 v 60 h -30 v -15 c 0,-8.40234 -6.59766,-15 -15,-15 -8.40234,0 -15,6.59766 -15,15 v 15 h -30 v -45 c 0,-8.40234 -6.59766,-15 -15,-15 -36.30078,0 -66.59766,25.80078 -73.5,60 H 151 V 165 h 75 c 8.40234,0 15,-6.59766 15,-15 v -30 c 0,-8.40234 -6.59766,-15 -15,-15 -8.40234,0 -15,6.59766 -15,15 v 15 H 151 V 75 h 210 z m 0,0"
       inkscape:connector-curvature="0"
       style="fill:#deecf1" />
    <path
       id="path20"
       d="m 391,60 v 240 c 0,8.40234 -6.59766,15 -15,15 H 256 v -90 c 8.40234,0 15,6.59766 15,15 v 45 h 30 v -15 c 0,-8.40234 6.59766,-15 15,-15 8.40234,0 15,6.59766 15,15 v 15 h 30 v -60 h -45 c -8.40234,0 -15,-6.59766 -15,-15 0,-8.40234 6.59766,-15 15,-15 h 45 v -30 h -75 c -8.40234,0 -15,-6.59766 -15,-15 v -30 c 0,-8.40234 6.59766,-15 15,-15 8.40234,0 15,6.59766 15,15 v 15 h 60 V 75 H 256 V 45 h 120 c 8.40234,0 15,6.597656 15,15 z m 0,0"
       inkscape:connector-curvature="0"
       style="fill:#c6e2e7" />
    <path
       id="path22"
       d="m 391,497 c 0,8.40234 -6.59766,15 -15,15 H 136 c -8.40234,0 -15,-6.59766 -15,-15 0,-8.40234 6.59766,-15 15,-15 h 240 c 8.40234,0 15,6.59766 15,15 z m 0,0"
       inkscape:connector-curvature="0"
       style="fill:#deecf1" />
    <path
       id="path24"
       d="m 391,497 c 0,8.40234 -6.59766,15 -15,15 H 256 v -30 h 120 c 8.40234,0 15,6.59766 15,15 z m 0,0"
       inkscape:connector-curvature="0"
       style="fill:#c6e2e7" />
  </g>
</svg>
