<?xml version="1.0" encoding="UTF-8" standalone="no"?>
<!-- Generator: Adobe Illustrator 19.0.0, SVG Export Plug-In . SVG Version: 6.00 Build 0)  -->

<svg
   xmlns:dc="http://purl.org/dc/elements/1.1/"
   xmlns:cc="http://creativecommons.org/ns#"
   xmlns:rdf="http://www.w3.org/1999/02/22-rdf-syntax-ns#"
   xmlns:svg="http://www.w3.org/2000/svg"
   xmlns="http://www.w3.org/2000/svg"
   xmlns:sodipodi="http://sodipodi.sourceforge.net/DTD/sodipodi-0.dtd"
   xmlns:inkscape="http://www.inkscape.org/namespaces/inkscape"
   version="1.1"
   id="Layer_1"
   x="0px"
   y="0px"
   viewBox="0 0 743.52815 743.52815"
   xml:space="preserve"
   sodipodi:docname="step-6.svg"
   width="743.52814"
   height="743.52814"
   inkscape:version="0.92.3 (2405546, 2018-03-11)"><metadata
   id="metadata71"><rdf:RDF><cc:Work
       rdf:about=""><dc:format>image/svg+xml</dc:format><dc:type
         rdf:resource="http://purl.org/dc/dcmitype/StillImage" /><dc:title></dc:title></cc:Work></rdf:RDF></metadata><defs
   id="defs69" /><sodipodi:namedview
   pagecolor="#b7b7b7"
   bordercolor="#666666"
   borderopacity="1"
   objecttolerance="10"
   gridtolerance="10"
   guidetolerance="10"
   inkscape:pageopacity="0"
   inkscape:pageshadow="2"
   inkscape:window-width="2560"
   inkscape:window-height="1379"
   id="namedview67"
   showgrid="false"
   fit-margin-top="0"
   fit-margin-left="0"
   fit-margin-right="0"
   fit-margin-bottom="0"
   inkscape:zoom="0.48014324"
   inkscape:cx="-130.16948"
   inkscape:cy="401.76408"
   inkscape:window-x="1920"
   inkscape:window-y="33"
   inkscape:window-maximized="1"
   inkscape:current-layer="Layer_1" />
<circle
   style="opacity:1;fill:#ffffff;fill-opacity:1;fill-rule:evenodd;stroke:none;stroke-width:0.1;stroke-linecap:round;stroke-linejoin:bevel;stroke-miterlimit:4;stroke-dasharray:none;stroke-opacity:1"
   id="path878"
   cx="371.76407"
   cy="371.76407"
   r="371.76407" /><path
   style="fill:#3ea69b"
   d="m 557.96107,128.73906 c -32.993,81.28 -49.571,159.864 -62.67,247.191 -45.232,-3.372 -65.948,-5.897 -110.691,-13.531 7.968,-87.956 10.486,-168.258 -2.308,-255.135 75.847,-19.021001 106.523,-15.271001 175.669,21.475 z"
   id="path2"
   inkscape:connector-curvature="0" />
<path
   style="fill:#44c4a1"
   d="m 473.90807,363.97906 c -26.46,-2.83 -39.334,-4.405 -65.704,-8.03 1.068,-9.834 -4.669,-18.583 -12.83,-19.643 5.415,-69.381 7.038,-132.461 2.56,-201.707 11.992,-3.419 21.488,-12.728 20.917,-22.262 41.975,-8.155 63.575,-5.515 102.403,12.517 -2.808,9.121 4.21,20.449 15.044,26.658 -20.744,66.162 -34.111,127.811 -45.286,196.484 -8.168,-0.937 -15.809,6.177 -17.104,15.983 z"
   id="path4"
   inkscape:connector-curvature="0" />
<g
   id="g12"
   transform="translate(126.00407,96.004059)">
	<path
   style="fill:#3ea69b"
   d="m 334.481,102.258 c 25.378,3.102 41.537,26.073 37.685,45.426 -3.852,19.353 -24.34,31.222 -46.568,28.505 -22.226,-2.717 -39.31,-19.179 -38.47,-38.9 0.842,-19.721 21.979,-38.132 47.353,-35.031 z"
   id="path6"
   inkscape:connector-curvature="0" />
	<path
   style="fill:#3ea69b"
   d="m 343.623,26.162 c 5.614,0.686 9.552,5.288 8.854,9.879 -0.698,4.591 -5.536,7.501 -10.863,6.85 -5.325,-0.651 -9.334,-4.643 -8.924,-9.268 0.408,-4.627 5.321,-8.147 10.933,-7.461 z"
   id="path8"
   inkscape:connector-curvature="0" />
	
		<ellipse
   transform="matrix(-0.9928,-0.1194,0.1194,-0.9928,603.4669,524.0775)"
   style="fill:#3ea69b"
   cx="317.439"
   cy="243.95399"
   rx="6.8299999"
   ry="8.4219999"
   id="ellipse10" />
</g>
<path
   style="fill:#44c4a1"
   d="m 489.69607,243.48806 c -2.367,-0.581 -3.551,-0.86 -5.926,-1.394 -2.142,7.932 -6.248,14.593 -12.214,20.244 -2.365,-3.108 -3.557,-4.659 -5.975,-7.742 4.592,-4.445 7.721,-9.175 9.31,-14.359 -6.34,-1.224 -9.524,-1.748 -15.914,-2.605 -2.343,6.646 -4.865,11.42 -7.595,14.334 -2.731,2.913 -6.377,4.127 -11,3.739 -4.625,-0.387 -8.236,-2.442 -10.919,-6.218 -2.679,-3.775 -3.987,-8.511 -3.881,-14.308 -1.666,-0.026 -2.499,-0.034 -4.169,-0.038 0.136,-2.278 0.201,-3.417 0.327,-5.694 1.721,-0.009 2.579,-0.008 4.296,0.007 0.87,-6.559 3.35,-12.777 7.646,-18.617 3.059,2.381 4.565,3.61 7.53,6.127 -3.039,3.856 -5.014,8.104 -6.008,12.718 6.315,0.26 9.468,0.479 15.75,1.111 0.012,-0.11 0.017,-0.165 0.029,-0.274 2.273,-6.822 4.928,-11.731 7.956,-14.673 3.035,-2.948 7.12,-4.058 12.143,-3.162 5.028,0.897 8.811,3.657 11.273,8.047 2.471,4.391 3.253,9.627 2.478,15.716 2.361,0.549 3.542,0.836 5.895,1.434 -0.418,2.24 -0.623,3.362 -1.032,5.607 z m -53.568,-1.545 c 1.094,1.611 2.547,2.477 4.373,2.613 1.823,0.136 3.324,-0.353 4.51,-1.467 1.185,-1.113 2.455,-3.325 3.815,-6.627 -5.724,-0.552 -8.595,-0.753 -14.345,-1.013 -10e-4,2.724 0.55,4.883 1.647,6.494 z m 38.641,-14.677 c -1.018,-1.924 -2.519,-3.079 -4.487,-3.425 -1.965,-0.346 -3.622,0.064 -4.954,1.212 -1.332,1.156 -2.738,3.477 -4.204,6.964 5.984,0.84 8.968,1.349 14.906,2.53 0.177,-2.922 -0.24,-5.349 -1.261,-7.281 z"
   id="path14"
   inkscape:connector-curvature="0" />
<path
   style="fill:#3ea69b"
   d="m 610.19707,199.21806 c -54.483,65.688 -92.783,134.72 -130.349,213.352 -41.469,-19.522 -60.178,-29.4 -99.954,-52.814 32.932,-81.082 58.535,-156.821 71.673,-244.355 76.679,9.182 104.379,23.82 158.63,83.817 z"
   id="path16"
   inkscape:connector-curvature="0" />
<path
   style="fill:#44c4a1"
   d="m 463.24207,393.45506 c -24.01,-12.239 -35.636,-18.382 -59.331,-31.348 3.848,-9.001 0.997,-19.42 -6.354,-23.373 25.161,-64.271 44.94,-123.895 60.779,-191.605 12.243,1.059 23.847,-4.404 26.071,-13.709 41.749,7.346 61.254,17.652 92.471,48.859 -5.275,7.693 -1.968,21.036 6.402,30.867 -38.613,55.673 -68.999,109.699 -99.361,171.219 -7.394,-3.839 -16.624,0.197 -20.677,9.09 z"
   id="path18"
   inkscape:connector-curvature="0" />
<g
   id="g26"
   transform="translate(126.00407,96.004059)">
	<path
   style="fill:#3ea69b"
   d="m 372.603,134.438 c 22.917,12.109 31.432,39.859 22.217,56.943 -9.216,17.084 -31.876,21.028 -51.948,10.422 -20.07,-10.605 -31.338,-32.475 -24.841,-50.996 6.496,-18.521 31.659,-28.476 54.572,-16.369 z"
   id="path20"
   inkscape:connector-curvature="0" />
	<path
   style="fill:#3ea69b"
   d="m 403.204,65.1 c 5.07,2.679 7.433,8.491 5.45,12.621 -1.983,4.13 -7.366,5.164 -12.176,2.622 -4.808,-2.54 -7.415,-7.796 -5.692,-12.063 1.722,-4.269 7.351,-5.858 12.418,-3.18 z"
   id="path22"
   inkscape:connector-curvature="0" />
	<path
   style="fill:#3ea69b"
   d="m 318.996,255.897 c 3.397,1.795 4.629,6.661 2.757,10.859 -1.87,4.199 -6.118,6.162 -9.486,4.382 -3.367,-1.779 -4.601,-6.638 -2.759,-10.852 1.841,-4.214 6.091,-6.184 9.488,-4.389 z"
   id="path24"
   inkscape:connector-curvature="0" />
</g>
<path
   style="fill:#44c4a1"
   d="m 512.92907,284.13806 c -2.053,-1.407 -3.083,-2.1 -5.158,-3.466 -4.305,6.799 -10.087,11.677 -17.32,14.92 -1.319,-3.819 -1.99,-5.729 -3.366,-9.544 5.596,-2.587 9.901,-5.974 12.892,-10.35 -5.595,-3.454 -8.432,-5.102 -14.18,-8.223 -4.122,5.499 -7.87,9.147 -11.276,10.944 -3.406,1.797 -7.178,1.64 -11.405,-0.396 -4.228,-2.037 -7.021,-5.3 -8.447,-9.871 -1.421,-4.569 -1.278,-9.561 0.499,-15.056 -1.556,-0.626 -2.335,-0.933 -3.901,-1.539 0.787,-2.126 1.177,-3.189 1.955,-5.317 1.618,0.611 2.423,0.922 4.029,1.555 2.714,-5.947 6.841,-10.989 12.563,-15.014 2.181,3.375 3.239,5.091 5.293,8.562 -3.968,2.585 -7.051,5.928 -9.318,9.974 5.851,2.524 8.746,3.87 14.458,6.737 0.043,-0.1 0.064,-0.151 0.107,-0.251 4.107,-5.692 8.02,-9.421 11.712,-11.137 3.701,-1.72 7.855,-1.307 12.31,1.359 4.458,2.668 7.209,6.667 8.249,11.744 1.047,5.082 0.266,10.362 -2.223,15.894 2.057,1.375 3.081,2.075 5.117,3.494 -1.04,1.989 -1.557,2.986 -2.59,4.981 z m -49.821,-20.783 c 0.561,1.932 1.673,3.282 3.347,4.07 1.672,0.787 3.221,0.861 4.657,0.226 1.435,-0.635 3.266,-2.289 5.498,-4.95 -5.211,-2.59 -7.847,-3.816 -13.168,-6.138 -0.789,2.599 -0.897,4.859 -0.334,6.792 z m 40.508,-0.081 c -0.399,-2.203 -1.473,-3.846 -3.22,-4.887 -1.744,-1.039 -3.418,-1.244 -4.999,-0.628 -1.585,0.623 -3.576,2.331 -5.961,5.131 5.372,2.959 8.025,4.52 13.256,7.788 1.012,-2.725 1.323,-5.192 0.924,-7.404 z"
   id="path28"
   inkscape:connector-curvature="0" />
<path
   style="fill:#fcd462"
   d="m 531.91907,336.28606 v 0 c 0,-18.771 -14.885,-33.987 -33.243,-33.987 h -2.258 c -31.754,-2.96 -56.891,-1.892 -74.498,0 h -4.421 v 0.509 c -16.087,1.991 -24.74,4.518 -24.74,4.518 l -1.766,-51.248 -23.31,4.93 c -13.289,2.973 -25.354,9.932 -34.581,19.948 l -50.874,55.225 c -12.659,13.742 -30.491,21.56 -49.176,21.56 h -6.435 l -25.137,182.52 63.68,0.558 c 90.493,35.75 199.418,23.174 199.418,23.174 h 9.358 c 18.36,0 33.243,-15.217 33.243,-33.986 v 0 c 0,-13.675 -7.919,-25.433 -19.307,-30.825 h 2.299 c 18.36,0 33.243,-15.217 33.243,-33.986 v 0 c 0,-13.49 -7.708,-25.11 -18.848,-30.599 15.544,-2.847 27.353,-16.711 27.353,-33.422 v 0 c 0,-15.235 -9.806,-28.128 -23.319,-32.444 13.512,-4.318 23.319,-17.21 23.319,-32.445 z"
   id="path30"
   inkscape:connector-curvature="0" />
<rect
   x="133.33107"
   y="328.55408"
   style="fill:#104ba9;fill-opacity:0.94117647"
   width="106.691"
   height="258.97"
   id="rect32" />
<circle
   style="fill:#1c75a1"
   cx="186.67607"
   cy="546.66602"
   r="18.714001"
   id="circle34" />
<g
   id="g36"
   transform="translate(126.00407,96.004059)">
</g>
<g
   id="g38"
   transform="translate(126.00407,96.004059)">
</g>
<g
   id="g40"
   transform="translate(126.00407,96.004059)">
</g>
<g
   id="g42"
   transform="translate(126.00407,96.004059)">
</g>
<g
   id="g44"
   transform="translate(126.00407,96.004059)">
</g>
<g
   id="g46"
   transform="translate(126.00407,96.004059)">
</g>
<g
   id="g48"
   transform="translate(126.00407,96.004059)">
</g>
<g
   id="g50"
   transform="translate(126.00407,96.004059)">
</g>
<g
   id="g52"
   transform="translate(126.00407,96.004059)">
</g>
<g
   id="g54"
   transform="translate(126.00407,96.004059)">
</g>
<g
   id="g56"
   transform="translate(126.00407,96.004059)">
</g>
<g
   id="g58"
   transform="translate(126.00407,96.004059)">
</g>
<g
   id="g60"
   transform="translate(126.00407,96.004059)">
</g>
<g
   id="g62"
   transform="translate(126.00407,96.004059)">
</g>
<g
   id="g64"
   transform="translate(126.00407,96.004059)">
</g>
</svg>