<?xml version="1.0" encoding="UTF-8" standalone="no"?>
<!-- Generator: Adobe Illustrator 19.0.0, SVG Export Plug-In . SVG Version: 6.00 Build 0)  -->

<svg
   xmlns:dc="http://purl.org/dc/elements/1.1/"
   xmlns:cc="http://creativecommons.org/ns#"
   xmlns:rdf="http://www.w3.org/1999/02/22-rdf-syntax-ns#"
   xmlns:svg="http://www.w3.org/2000/svg"
   xmlns="http://www.w3.org/2000/svg"
   xmlns:sodipodi="http://sodipodi.sourceforge.net/DTD/sodipodi-0.dtd"
   xmlns:inkscape="http://www.inkscape.org/namespaces/inkscape"
   version="1.1"
   id="Capa_1"
   x="0px"
   y="0px"
   viewBox="0 0 789.69489 789.69489"
   xml:space="preserve"
   sodipodi:docname="step-7.svg"
   width="789.69489"
   height="789.69489"
   inkscape:version="0.92.3 (2405546, 2018-03-11)"><metadata
   id="metadata61"><rdf:RDF><cc:Work
       rdf:about=""><dc:format>image/svg+xml</dc:format><dc:type
         rdf:resource="http://purl.org/dc/dcmitype/StillImage" /><dc:title></dc:title></cc:Work></rdf:RDF></metadata><defs
   id="defs59" /><sodipodi:namedview
   pagecolor="#9f9f9f"
   bordercolor="#666666"
   borderopacity="1"
   objecttolerance="10"
   gridtolerance="10"
   guidetolerance="10"
   inkscape:pageopacity="0"
   inkscape:pageshadow="2"
   inkscape:window-width="2560"
   inkscape:window-height="1379"
   id="namedview57"
   showgrid="false"
   fit-margin-top="0"
   fit-margin-left="0"
   fit-margin-right="0"
   fit-margin-bottom="0"
   inkscape:zoom="0.4609375"
   inkscape:cx="-128.00002"
   inkscape:cy="420.20337"
   inkscape:window-x="1920"
   inkscape:window-y="33"
   inkscape:window-maximized="1"
   inkscape:current-layer="Capa_1" />
<circle
   style="opacity:1;fill:#ffffff;fill-opacity:1;fill-rule:evenodd;stroke:none;stroke-width:0.1;stroke-linecap:round;stroke-linejoin:bevel;stroke-miterlimit:4;stroke-dasharray:none;stroke-opacity:1"
   id="path871"
   cx="394.84744"
   cy="394.84744"
   r="394.84744" /><circle
   style="fill:#fcbf29"
   cx="544.63245"
   cy="129.19452"
   r="14.979"
   id="circle2" />
<path
   style="fill:#fedb41"
   d="m 335.03444,262.61352 v 0 c -5.676,0 -10.869,-3.203 -13.399,-8.279 l -17.729,-35.487 -35.487,-17.729 c -5.076,-2.53 -8.279,-7.723 -8.279,-13.399 0,-5.676 3.203,-10.869 8.279,-13.399 l 35.487,-17.729 17.729,-35.487 c 5.061,-10.152 21.707,-10.152 26.798,0 l 17.744,35.487 35.472,17.729 c 5.076,2.545 8.279,7.723 8.279,13.399 0,5.676 -3.203,10.854 -8.279,13.399 l -35.472,17.729 -17.744,35.487 c -2.545,5.076 -7.723,8.279 -13.399,8.279 z"
   id="path4"
   inkscape:connector-curvature="0" />
<path
   style="fill:#fcbf29"
   d="m 635.50644,234.04652 h -14.979 v -14.979 c 0,-8.279 -6.7,-14.979 -14.979,-14.979 -8.279,0 -14.979,6.7 -14.979,14.979 v 14.979 h -14.979 c -8.279,0 -14.979,6.7 -14.979,14.979 0,8.279 6.7,14.979 14.979,14.979 h 14.979 v 14.979 c 0,8.279 6.7,14.979 14.979,14.979 8.279,0 14.979,-6.7 14.979,-14.979 v -14.979 h 14.979 c 8.279,0 14.979,-6.7 14.979,-14.979 0,-8.279 -6.699,-14.979 -14.979,-14.979 z"
   id="path6"
   inkscape:connector-curvature="0" />
<path
   style="fill:#fec478"
   d="m 575.59144,625.49152 h -143.596 c -27.861,0 -54.223,-10.785 -73.994,-30.857 l -33.552,-33.553 c -2.997,-2.695 -4.495,-6.59 -4.495,-10.484 v -181.742 c 0,-8.389 6.59,-14.979 14.979,-14.979 h 29.958 l 47.334,-47.634 c 27.56,-27.26 42.539,-63.51 42.539,-102.154 0,-16.477 13.481,-29.958 29.958,-29.958 16.477,0 29.958,13.481 29.958,29.958 v 22.768 c 0,36.248 -6.59,72.197 -19.173,106.947 l -7.489,20.073 h 81.285 l 2.398,102.255 z"
   id="path8"
   inkscape:connector-curvature="0" />
<path
   style="fill:#feb756"
   d="m 575.59144,625.49152 h -143.596 c -27.861,0 -54.223,-10.785 -73.994,-30.857 l -33.552,-33.553 c -2.997,-2.695 -4.495,-6.59 -4.495,-10.484 v -94.466 h 251.743 z"
   id="path10"
   inkscape:connector-curvature="0" />
<path
   style="fill:#fedbab"
   d="m 616.93344,489.68452 c 18.574,0 33.552,15.977 33.552,34.551 0,18.873 -14.979,33.852 -33.552,33.852 h -29.958 c 18.574,0 33.552,14.979 33.552,33.852 0,18.574 -14.979,33.552 -33.552,33.552 h -53.724 c -18.574,0 -33.552,-14.979 -33.552,-33.552 0,-18.873 14.979,-33.852 33.552,-33.852 -18.574,0 -33.552,-14.979 -33.552,-33.852 0,-18.574 14.979,-34.551 33.552,-34.551 -18.574,0 -33.552,-14.979 -33.552,-33.552 0,-18.873 14.979,-34.851 33.552,-34.851 -18.574,0 -33.552,-14.979 -33.552,-33.852 0,-18.574 14.979,-33.552 33.552,-33.552 h 83.682 c 18.574,0 33.552,14.979 33.552,33.552 0,18.873 -14.979,33.852 -33.552,33.852 18.574,0 33.552,15.977 33.552,34.851 0,18.573 -14.979,33.552 -33.552,33.552 z"
   id="path12"
   inkscape:connector-curvature="0" />
<path
   style="fill:#fec478"
   d="m 650.48544,524.23552 c 0,18.873 -14.979,33.852 -33.552,33.852 h -29.958 c 18.574,0 33.552,14.979 33.552,33.852 0,18.574 -14.979,33.552 -33.552,33.552 h -53.724 c -18.574,0 -33.552,-14.979 -33.552,-33.552 0,-18.873 14.979,-33.852 33.552,-33.852 -18.574,0 -33.552,-14.979 -33.552,-33.852 0,-18.574 14.979,-34.551 33.552,-34.551 -18.574,0 -33.552,-14.979 -33.552,-33.552 h 150.786 c 0,18.574 -14.979,33.552 -33.552,33.552 18.573,0 33.552,15.977 33.552,34.551 z"
   id="path14"
   inkscape:connector-curvature="0" />
<path
   style="fill:#4f3f82"
   d="m 334.93244,323.91952 h -59.915 c -8.389,0 -14.979,6.59 -14.979,14.979 v 241.658 c 0,8.387 6.59,14.979 14.979,14.979 h 59.915 c 8.389,0 14.979,-6.592 14.979,-14.979 v -241.659 c 0,-8.389 -6.591,-14.978 -14.979,-14.978 z"
   id="path16"
   inkscape:connector-curvature="0" />
<path
   style="fill:#3b2c68"
   d="m 260.03844,456.13152 h 89.873 v 124.424 c 0,8.387 -6.59,14.979 -14.979,14.979 h -59.915 c -8.389,0 -14.979,-6.592 -14.979,-14.979 0,0 0,-124.424 0,-124.424 z"
   id="path18"
   inkscape:connector-curvature="0" />
<path
   style="fill:#104ba9;fill-opacity:1"
   d="m 275.01744,293.96152 h -120.829 c -8.389,0 -14.979,6.59 -14.979,14.979 v 301.573 c 0,8.387 6.59,14.979 14.979,14.979 h 120.829 c 8.389,0 14.979,-6.592 14.979,-14.979 v -301.573 c 0,-8.389 -6.591,-14.979 -14.979,-14.979 z"
   id="path20"
   inkscape:connector-curvature="0" />
<path
   style="fill:#093e91;fill-opacity:1"
   d="m 139.20944,456.13152 h 150.786 v 154.381 c 0,8.387 -6.59,14.979 -14.979,14.979 h -120.828 c -8.389,0 -14.979,-6.592 -14.979,-14.979 0,10e-4 0,-154.381 0,-154.381 z"
   id="path22"
   inkscape:connector-curvature="0" />
<circle
   style="fill:#cae8f9"
   cx="215.09944"
   cy="550.60352"
   r="14.979"
   id="circle24" />
<g
   id="g26"
   transform="translate(138.84744,113.49152)">
</g>
<g
   id="g28"
   transform="translate(138.84744,113.49152)">
</g>
<g
   id="g30"
   transform="translate(138.84744,113.49152)">
</g>
<g
   id="g32"
   transform="translate(138.84744,113.49152)">
</g>
<g
   id="g34"
   transform="translate(138.84744,113.49152)">
</g>
<g
   id="g36"
   transform="translate(138.84744,113.49152)">
</g>
<g
   id="g38"
   transform="translate(138.84744,113.49152)">
</g>
<g
   id="g40"
   transform="translate(138.84744,113.49152)">
</g>
<g
   id="g42"
   transform="translate(138.84744,113.49152)">
</g>
<g
   id="g44"
   transform="translate(138.84744,113.49152)">
</g>
<g
   id="g46"
   transform="translate(138.84744,113.49152)">
</g>
<g
   id="g48"
   transform="translate(138.84744,113.49152)">
</g>
<g
   id="g50"
   transform="translate(138.84744,113.49152)">
</g>
<g
   id="g52"
   transform="translate(138.84744,113.49152)">
</g>
<g
   id="g54"
   transform="translate(138.84744,113.49152)">
</g>
</svg>